<svg width="41" height="35" viewBox="0 0 41 35" fill="none" xmlns="http://www.w3.org/2000/svg">
<g filter="url(#filter0_i_28556_2)">
<path d="M0 4.5C0 3.94772 0.447715 3.5 1 3.5H11.5858C11.851 3.5 12.1054 3.39464 12.2929 3.20711L15.2071 0.292893C15.3946 0.105357 15.649 0 15.9142 0H24.5858C24.851 0 25.1054 0.105357 25.2929 0.292893L28.2071 3.20711C28.3946 3.39464 28.649 3.5 28.9142 3.5H40C40.5523 3.5 41 3.94772 41 4.5V34C41 34.5523 40.5523 35 40 35H0.999999C0.447714 35 0 34.5523 0 34V4.5Z" fill="black"/>
</g>
<path d="M40.5 4.5V34C40.5 34.2761 40.2761 34.5 40 34.5H0.999999C0.723857 34.5 0.5 34.2761 0.5 34V4.5C0.5 4.22386 0.723858 4 1 4H11.5858C11.9836 4 12.3651 3.84196 12.6464 3.56066L15.5607 0.646446C15.6544 0.552678 15.7816 0.5 15.9142 0.5H24.5858C24.7184 0.5 24.8456 0.552678 24.9393 0.646447L27.8536 3.56066C28.1349 3.84196 28.5164 4 28.9142 4H40C40.2761 4 40.5 4.22386 40.5 4.5Z" stroke="url(#paint0_linear_28556_2)"/>
<g filter="url(#filter1_d_28556_2)">
<path d="M20.1209 13.2332C20.1126 13.3472 20.2446 15.8086 20.1209 16.433C19.4555 17.1842 18.9813 16.952 18.6014 17.1441C18.2215 17.3362 18.4539 17.8231 18.9813 17.8552C19.5086 17.8873 20.1209 17.4997 20.1209 17.4997L20.1293 21.1332C19.3847 20.7848 18.4228 20.7848 18.9813 21.6559C19.5397 22.0043 19.8192 22.1884 19.9431 22.527C20.5016 24.2691 18.8374 24.0528 18.604 23.8994C18.3707 23.746 18.2861 23.6009 18.2215 23.1883C17.4621 22.8327 16.165 22.2887 16.3241 20.6107C14.8825 19.3481 14.3035 18.108 16.2203 16.2553C16.2203 13.9905 18.044 14.2089 18.4231 13.8534C18.8022 13.4979 18.5762 13.6959 18.9804 13.2334C19.3847 12.7708 20.1293 13.1192 20.1209 13.2332Z" fill="white"/>
</g>
<g filter="url(#filter2_d_28556_2)">
<path d="M21.2445 13.232C21.2522 13.3454 21.1305 15.7942 21.2445 16.4154C21.858 17.1627 22.2951 16.9317 22.6454 17.1228C22.9956 17.3139 22.7813 17.7983 22.2951 17.8302C21.809 17.8621 21.2445 17.4765 21.2445 17.4765V23.4304C21.2503 23.4274 21.2561 23.4245 21.2619 23.4217C21.3777 24.2779 22.4726 23.9641 22.6429 23.8433C22.858 23.6906 22.936 23.5464 22.9956 23.1358C23.5683 22.8705 25.4687 22.2909 25.048 21.5938C23.8741 21.5044 23.2692 21.2244 24.8401 20.3906C26.1487 19.7031 26.6075 18.0817 24.8404 16.2385C24.8404 13.9854 23.1592 14.2027 22.8097 13.849C22.4603 13.4954 22.6686 13.6923 22.2959 13.2322C21.9232 12.772 21.2368 13.1186 21.2445 13.232Z" fill="white"/>
</g>
<path d="M32 18.5C32 24.8513 26.8513 30 20.5 30C14.1487 30 9 24.8513 9 18.5C9 12.1487 14.1487 7 20.5 7C26.8513 7 32 12.1487 32 18.5ZM10.2819 18.5C10.2819 24.1433 14.8567 28.7181 20.5 28.7181C26.1433 28.7181 30.7181 24.1433 30.7181 18.5C30.7181 12.8567 26.1433 8.28194 20.5 8.28194C14.8567 8.28194 10.2819 12.8567 10.2819 18.5Z" fill="white"/>
<circle cx="33.5" cy="7.5" r="1.5" fill="white"/>
<defs>
<filter id="filter0_i_28556_2" x="0" y="0" width="41" height="39" filterUnits="userSpaceOnUse" color-interpolation-filters="sRGB">
<feFlood flood-opacity="0" result="BackgroundImageFix"/>
<feBlend mode="normal" in="SourceGraphic" in2="BackgroundImageFix" result="shape"/>
<feColorMatrix in="SourceAlpha" type="matrix" values="0 0 0 0 0 0 0 0 0 0 0 0 0 0 0 0 0 0 127 0" result="hardAlpha"/>
<feOffset dy="4"/>
<feGaussianBlur stdDeviation="5.5"/>
<feComposite in2="hardAlpha" operator="arithmetic" k2="-1" k3="1"/>
<feColorMatrix type="matrix" values="0 0 0 0 1 0 0 0 0 1 0 0 0 0 1 0 0 0 0.5 0"/>
<feBlend mode="normal" in2="shape" result="effect1_innerShadow_28556_2"/>
</filter>
<filter id="filter1_d_28556_2" x="11.4346" y="13" width="12.3046" height="18.1308" filterUnits="userSpaceOnUse" color-interpolation-filters="sRGB">
<feFlood flood-opacity="0" result="BackgroundImageFix"/>
<feColorMatrix in="SourceAlpha" type="matrix" values="0 0 0 0 0 0 0 0 0 0 0 0 0 0 0 0 0 0 127 0" result="hardAlpha"/>
<feOffset dy="3.56538"/>
<feGaussianBlur stdDeviation="1.78269"/>
<feComposite in2="hardAlpha" operator="out"/>
<feColorMatrix type="matrix" values="0 0 0 0 0 0 0 0 0 0 0 0 0 0 0 0 0 0 0.25 0"/>
<feBlend mode="normal" in2="BackgroundImageFix" result="effect1_dropShadow_28556_2"/>
<feBlend mode="normal" in="SourceGraphic" in2="effect1_dropShadow_28556_2" result="shape"/>
</filter>
<filter id="filter2_d_28556_2" x="17.6299" y="13" width="11.9354" height="18.1308" filterUnits="userSpaceOnUse" color-interpolation-filters="sRGB">
<feFlood flood-opacity="0" result="BackgroundImageFix"/>
<feColorMatrix in="SourceAlpha" type="matrix" values="0 0 0 0 0 0 0 0 0 0 0 0 0 0 0 0 0 0 127 0" result="hardAlpha"/>
<feOffset dy="3.56538"/>
<feGaussianBlur stdDeviation="1.78269"/>
<feComposite in2="hardAlpha" operator="out"/>
<feColorMatrix type="matrix" values="0 0 0 0 0 0 0 0 0 0 0 0 0 0 0 0 0 0 0.25 0"/>
<feBlend mode="normal" in2="BackgroundImageFix" result="effect1_dropShadow_28556_2"/>
<feBlend mode="normal" in="SourceGraphic" in2="effect1_dropShadow_28556_2" result="shape"/>
</filter>
<linearGradient id="paint0_linear_28556_2" x1="20.5" y1="2" x2="20.5" y2="35" gradientUnits="userSpaceOnUse">
<stop stop-color="white"/>
<stop offset="1" stop-color="white" stop-opacity="0"/>
</linearGradient>
</defs>
</svg>
